<svg xmlns="http://www.w3.org/2000/svg" width="400" height="400" viewBox="0 0 400 400" version="1.1">
	<path d="M 193.667 144.633 C 189.908 145.437, 184.508 147.010, 181.667 148.129 C 163.593 155.246, 147.958 171.658, 148.022 183.446 C 148.085 195.167, 159.665 205.670, 179.500 211.999 C 185.288 213.846, 189.572 214.318, 204.250 214.728 C 221.467 215.208, 224.003 214.828, 220.750 212.257 C 220.063 211.713, 210.950 208.450, 200.500 205.005 C 177.848 197.537, 172.538 195.182, 168.155 190.659 C 163.686 186.049, 162.613 181.030, 164.607 174.065 C 167.407 164.287, 181.781 152.352, 196.981 147.185 C 199.708 146.258, 201.986 145.061, 202.044 144.525 C 202.206 143.036, 201.068 143.050, 193.667 144.633 M 206.294 155.534 C 203.431 156.305, 198.232 158.329, 194.741 160.031 C 188.420 163.113, 179 170.322, 179 172.078 C 179 172.610, 187.411 173, 198.878 173 C 215.436 173, 218.966 173.254, 220.016 174.519 C 221.043 175.757, 220.973 176.372, 219.638 177.847 C 217.630 180.066, 217.570 181.398, 219.408 182.923 C 220.552 183.873, 223.263 181.447, 233.908 169.948 C 241.108 162.170, 247 155.399, 247 154.903 C 247 153.395, 212.233 153.934, 206.294 155.534 M 181 183.878 C 181 185.665, 183.875 186.900, 200 192.037 C 220.105 198.444, 227.523 201.672, 231.672 205.824 C 239.166 213.322, 238.095 223.988, 228.783 234.594 C 224.072 239.959, 212.845 247.492, 204.930 250.597 C 201.118 252.093, 198 253.746, 198 254.272 C 198 256.977, 217.737 251.178, 226.765 245.821 C 240.806 237.488, 252 223.062, 252 213.300 C 252 204.439, 245.145 196.339, 232.629 190.409 C 220.761 184.787, 211.769 183, 195.340 183 C 187.453 183, 181 183.395, 181 183.878 M 166 228.596 C 159.125 236.073, 153.355 242.822, 153.177 243.595 C 152.909 244.760, 155.820 245, 170.245 245 C 189.149 245, 193.727 244.184, 204.052 238.973 C 210.204 235.868, 220 228.500, 220 226.977 C 220 226.374, 212.338 226, 199.969 226 C 178.133 226, 177.165 225.731, 180.534 220.589 C 182.316 217.869, 181.930 214.999, 179.781 215.001 C 179.077 215.002, 172.875 221.120, 166 228.596" stroke="none" fill="black" fill-rule="evenodd"/>
</svg>