<svg xmlns="http://www.w3.org/2000/svg" viewBox="0 0 24 24" fill="none" aria-hidden="true">
  <defs>
    <linearGradient id="sr-mark" x1="0" y1="0" x2="24" y2="24" gradientUnits="userSpaceOnUse">
      <stop stop-color="#FF7426"/>
      <stop offset="0.45" stop-color="#FF5830"/>
      <stop offset="1" stop-color="#FF1172"/>
    </linearGradient>
  </defs>
  <path d="M 10.754 1.324 C 9.951 1.483, 8.798 1.795, 8.191 2.017 C 4.331 3.427, 0.991 6.68, 1.005 9.016 C 1.018 11.339, 3.492 13.421, 7.728 14.675 C 8.964 15.042, 9.879 15.135, 13.015 15.216 C 16.692 15.311, 17.234 15.236, 16.539 14.727 C 16.392 14.619, 14.446 13.972, 12.214 13.289 C 7.375 11.809, 6.241 11.342, 5.305 10.446 C 4.35 9.532, 4.121 8.537, 4.547 7.157 C 5.145 5.219, 8.215 2.854, 11.462 1.829 C 12.044 1.646, 12.531 1.408, 12.543 1.302 C 12.578 1.007, 12.335 1.01, 10.754 1.324 M 13.451 3.484 C 12.84 3.637, 11.729 4.038, 10.984 4.376 C 9.633 4.986, 7.621 6.415, 7.621 6.763 C 7.621 6.869, 9.418 6.946, 11.867 6.946 C 15.404 6.946, 16.158 6.996, 16.382 7.247 C 16.601 7.492, 16.586 7.614, 16.301 7.907 C 15.872 8.346, 15.86 8.61, 16.252 8.913 C 16.497 9.101, 17.076 8.62, 19.349 6.341 C 20.887 4.799, 22.146 3.457, 22.146 3.359 C 22.146 3.06, 14.72 3.167, 13.451 3.484 M 8.049 9.102 C 8.049 9.456, 8.663 9.701, 12.107 10.719 C 16.401 11.989, 17.985 12.629, 18.872 13.452 C 20.472 14.938, 20.244 17.052, 18.255 19.154 C 17.248 20.217, 14.85 21.71, 13.16 22.326 C 12.346 22.622, 11.68 22.95, 11.68 23.054 C 11.68 23.59, 15.895 22.441, 17.824 21.379 C 20.823 19.727, 23.214 16.868, 23.214 14.933 C 23.214 13.177, 21.749 11.572, 19.076 10.396 C 16.541 9.282, 14.621 8.928, 11.111 8.928 C 9.427 8.928, 8.049 9.006, 8.049 9.102 M 4.845 17.965 C 3.376 19.447, 2.144 20.785, 2.106 20.938 C 2.049 21.169, 2.67 21.216, 5.751 21.216 C 9.789 21.216, 10.767 21.054, 12.972 20.022 C 14.286 19.406, 16.379 17.946, 16.379 17.644 C 16.379 17.525, 14.742 17.45, 12.1 17.45 C 7.436 17.45, 7.229 17.397, 7.949 16.378 C 8.33 15.839, 8.247 15.27, 7.788 15.27 C 7.638 15.271, 6.313 16.483, 4.845 17.965" fill="url(#sr-mark)" fill-rule="evenodd"/>
</svg>