<svg xmlns="http://www.w3.org/2000/svg" viewBox="0 0 32 32" fill="none">
  <defs>
    <linearGradient id="g" x1="4" y1="4" x2="28" y2="28" gradientUnits="userSpaceOnUse">
      <stop stop-color="#7c3aed"/>
      <stop offset="0.55" stop-color="#d946ef"/>
      <stop offset="1" stop-color="#fbbf24"/>
    </linearGradient>
    <linearGradient id="s" x1="14" y1="8" x2="22" y2="18" gradientUnits="userSpaceOnUse">
      <stop stop-color="#fef3c7"/>
      <stop offset="1" stop-color="#fde68a"/>
    </linearGradient>
  </defs>
  <rect width="32" height="32" rx="8" fill="url(#g)"/>
  <circle cx="16" cy="16" r="9" stroke="#fff" stroke-width="1.5" stroke-opacity="0.35" fill="none"/>
  <path d="M16 7.5a8.5 8.5 0 0 1 0 17" stroke="#fff" stroke-width="2.25" stroke-linecap="round" fill="none"/>
  <path d="M16 24.5a8.5 8.5 0 0 1 0-17" stroke="#fff" stroke-width="2.25" stroke-linecap="round" stroke-opacity="0.7" fill="none"/>
  <circle cx="16" cy="16" r="2.75" fill="url(#s)"/>
  <path d="M16 10.5v1.5M16 20v1.5M10.5 16h1.5M20 16h1.5M12.2 12.2l1.1 1.1M18.7 18.7l1.1 1.1M19.8 12.2l-1.1 1.1M13.3 18.7l-1.1 1.1" stroke="#fef9c3" stroke-width="1.25" stroke-linecap="round"/>
</svg>
