<svg width="1600" height="1000" viewBox="0 0 1600 1000" fill="none" xmlns="http://www.w3.org/2000/svg">
  <defs>
    <linearGradient id="bg" x1="0" y1="0" x2="1600" y2="1000" gradientUnits="userSpaceOnUse">
      <stop stop-color="#111827"/>
      <stop offset="1" stop-color="#0B1220"/>
    </linearGradient>
    <linearGradient id="card" x1="0" y1="0" x2="1" y2="1">
      <stop stop-color="#1F2937"/>
      <stop offset="1" stop-color="#111827"/>
    </linearGradient>
  </defs>
  <rect width="1600" height="1000" rx="40" fill="url(#bg)"/>
  <g opacity="0.9">
    <rect x="140" y="150" width="560" height="700" rx="28" fill="url(#card)" stroke="#334155"/>
    <rect x="190" y="210" width="460" height="46" rx="10" fill="#0F172A" stroke="#334155"/>
    <rect x="190" y="286" width="280" height="18" rx="9" fill="#334155"/>
    <rect x="190" y="320" width="360" height="18" rx="9" fill="#334155" opacity="0.75"/>
    <rect x="190" y="410" width="200" height="140" rx="16" fill="#0F172A" stroke="#334155"/>
    <rect x="410" y="410" width="240" height="140" rx="16" fill="#0F172A" stroke="#334155"/>
    <rect x="190" y="576" width="460" height="20" rx="10" fill="#22C55E" opacity="0.35"/>
    <rect x="190" y="620" width="420" height="16" rx="8" fill="#64748B" opacity="0.9"/>
    <rect x="190" y="652" width="360" height="16" rx="8" fill="#64748B" opacity="0.65"/>
    <rect x="190" y="720" width="180" height="46" rx="14" fill="#22C55E" opacity="0.85"/>
    <rect x="390" y="720" width="140" height="46" rx="14" fill="#0F172A" stroke="#334155"/>
  </g>
  <g opacity="0.95">
    <rect x="780" y="220" width="680" height="560" rx="28" fill="url(#card)" stroke="#334155"/>
    <rect x="840" y="280" width="560" height="18" rx="9" fill="#64748B" opacity="0.8"/>
    <rect x="840" y="314" width="420" height="18" rx="9" fill="#64748B" opacity="0.55"/>
    <rect x="840" y="384" width="270" height="160" rx="18" fill="#0F172A" stroke="#334155"/>
    <rect x="1130" y="384" width="270" height="160" rx="18" fill="#0F172A" stroke="#334155"/>
    <rect x="840" y="566" width="560" height="20" rx="10" fill="#60A5FA" opacity="0.28"/>
    <rect x="840" y="610" width="520" height="16" rx="8" fill="#64748B" opacity="0.85"/>
    <rect x="840" y="642" width="460" height="16" rx="8" fill="#64748B" opacity="0.6"/>
  </g>
  <circle cx="1340" cy="190" r="18" fill="#22C55E" opacity="0.75"/>
  <circle cx="1386" cy="190" r="18" fill="#60A5FA" opacity="0.65"/>
  <circle cx="1432" cy="190" r="18" fill="#A78BFA" opacity="0.65"/>
</svg>

