<svg xmlns="http://www.w3.org/2000/svg" width="1200" height="630" viewBox="0 0 1200 630" fill="none">
  <defs>
    <linearGradient id="bg" x1="0" y1="0" x2="1200" y2="630" gradientUnits="userSpaceOnUse">
      <stop stop-color="#050A18"/>
      <stop offset="0.55" stop-color="#07162A"/>
      <stop offset="1" stop-color="#0c1f3d"/>
    </linearGradient>
    <linearGradient id="logo-mark" x1="0" y1="0" x2="200" y2="200" gradientUnits="userSpaceOnUse">
      <stop stop-color="#FF7426"/>
      <stop offset="0.45" stop-color="#FF5830"/>
      <stop offset="1" stop-color="#FF1172"/>
    </linearGradient>
    <linearGradient id="title" x1="340" y1="200" x2="900" y2="320" gradientUnits="userSpaceOnUse">
      <stop stop-color="#FF7426"/>
      <stop offset="0.55" stop-color="#FF5830"/>
      <stop offset="1" stop-color="#FF1172"/>
    </linearGradient>
    <radialGradient id="glow" cx="180" cy="315" r="220" gradientUnits="userSpaceOnUse">
      <stop stop-color="#FF5830" stop-opacity="0.28"/>
      <stop offset="1" stop-color="#FF5830" stop-opacity="0"/>
    </radialGradient>
  </defs>
  <rect width="1200" height="630" fill="url(#bg)"/>
  <circle cx="180" cy="315" r="220" fill="url(#glow)"/>
  <g transform="translate(80,155) scale(6.25)">
    <rect width="32" height="32" rx="7" fill="#07162A"/>
    <path d="M 14.584 3.383 C 13.672 3.571, 12.361 3.939, 11.672 4.201 C 7.285 5.868, 3.49 9.713, 3.505 12.474 C 3.521 15.219, 6.331 17.679, 11.146 19.162 C 12.55 19.595, 13.59 19.705, 17.153 19.801 C 21.332 19.914, 21.947 19.825, 21.158 19.222 C 20.991 19.095, 18.779 18.331, 16.243 17.524 C 10.745 15.774, 9.456 15.223, 8.392 14.163 C 7.307 13.084, 7.047 11.908, 7.531 10.276 C 8.21 7.986, 11.699 5.191, 15.389 3.98 C 16.05 3.763, 16.603 3.483, 16.617 3.357 C 16.657 3.008, 16.381 3.012, 14.584 3.383 M 17.649 5.936 C 16.954 6.116, 15.692 6.591, 14.845 6.989 C 13.311 7.711, 11.024 9.4, 11.024 9.811 C 11.024 9.936, 13.066 10.027, 15.849 10.027 C 19.868 10.027, 20.725 10.087, 20.98 10.383 C 21.229 10.673, 21.212 10.817, 20.888 11.162 C 20.4 11.682, 20.386 11.994, 20.832 12.351 C 21.11 12.574, 21.768 12.006, 24.351 9.312 C 26.099 7.49, 27.529 5.904, 27.529 5.788 C 27.529 5.435, 19.091 5.561, 17.649 5.936 M 11.51 12.575 C 11.51 12.994, 12.208 13.283, 16.121 14.486 C 21.001 15.987, 22.802 16.743, 23.809 17.716 C 25.628 19.472, 25.368 21.97, 23.108 24.454 C 21.964 25.711, 19.239 27.476, 17.318 28.203 C 16.393 28.553, 15.636 28.941, 15.636 29.064 C 15.636 29.697, 20.426 28.339, 22.618 27.084 C 26.026 25.132, 28.743 21.753, 28.743 19.467 C 28.743 17.391, 27.079 15.494, 24.041 14.105 C 21.16 12.788, 18.978 12.369, 14.99 12.369 C 13.076 12.369, 11.51 12.462, 11.51 12.575 M 7.869 23.05 C 6.2 24.801, 4.8 26.382, 4.757 26.563 C 4.692 26.836, 5.398 26.892, 8.899 26.892 C 13.488 26.892, 14.599 26.701, 17.105 25.48 C 18.598 24.753, 20.976 23.027, 20.976 22.67 C 20.976 22.529, 19.116 22.441, 16.114 22.441 C 10.814 22.441, 10.579 22.378, 11.397 21.174 C 11.829 20.537, 11.735 19.865, 11.214 19.865 C 11.043 19.865, 9.538 21.298, 7.869 23.05" fill="url(#logo-mark)" fill-rule="evenodd"/>
  </g>
  <text x="340" y="290" fill="url(#title)" font-family="Segoe UI, system-ui, sans-serif" font-size="96" font-weight="700" letter-spacing="-2">Sparkroll</text>
  <text x="342" y="370" fill="#ffb899" font-family="Segoe UI, system-ui, sans-serif" font-size="34" font-weight="500">Spark your ideas. Roll your content.</text>
  <text x="342" y="430" fill="#ff8a80" fill-opacity="0.75" font-family="Segoe UI, system-ui, sans-serif" font-size="26">Free AI-powered YouTube creator toolkit</text>
</svg>