<svg xmlns="http://www.w3.org/2000/svg" width="1200" height="630" viewBox="0 0 1200 630" fill="none">
  <defs>
    <linearGradient id="bg" x1="0" y1="0" x2="1200" y2="630" gradientUnits="userSpaceOnUse">
      <stop stop-color="#0f0a1a"/>
      <stop offset="0.55" stop-color="#1a1033"/>
      <stop offset="1" stop-color="#2d1b4e"/>
    </linearGradient>
    <linearGradient id="logo-bg" x1="80" y1="80" x2="280" y2="280" gradientUnits="userSpaceOnUse">
      <stop stop-color="#7c3aed"/>
      <stop offset="1" stop-color="#d946ef"/>
    </linearGradient>
    <linearGradient id="logo-shine" x1="100" y1="90" x2="220" y2="210" gradientUnits="userSpaceOnUse">
      <stop stop-color="#fff" stop-opacity="0.18"/>
      <stop offset="1" stop-color="#fff" stop-opacity="0"/>
    </linearGradient>
    <linearGradient id="title" x1="340" y1="200" x2="900" y2="320" gradientUnits="userSpaceOnUse">
      <stop stop-color="#a78bfa"/>
      <stop offset="0.55" stop-color="#e879f9"/>
      <stop offset="1" stop-color="#d946ef"/>
    </linearGradient>
    <radialGradient id="glow" cx="180" cy="315" r="220" gradientUnits="userSpaceOnUse">
      <stop stop-color="#7c3aed" stop-opacity="0.35"/>
      <stop offset="1" stop-color="#7c3aed" stop-opacity="0"/>
    </radialGradient>
  </defs>
  <rect width="1200" height="630" fill="url(#bg)"/>
  <circle cx="180" cy="315" r="220" fill="url(#glow)"/>
  <g transform="translate(80,155) scale(6.25)">
    <rect width="32" height="32" rx="8" fill="url(#logo-bg)"/>
    <rect width="32" height="32" rx="8" fill="url(#logo-shine)"/>
    <path d="M21.2 11.2C21.2 8.7 18.7 7 16 7c-3.2 0-5.6 1.8-5.6 4.4 0 2.1 1.3 3.4 3.8 4l3.6.7c2.4.5 3.6 1.7 3.6 3.6 0 2.6-2.4 4.3-5.8 4.3-3.1 0-5.5-1.6-5.8-4.1" stroke="#fff" stroke-width="2.85" stroke-linecap="round" stroke-linejoin="round"/>
    <path d="M13.2 16.8 19.8 14.2 19.8 19.4Z" fill="#fff" fill-opacity="0.92"/>
  </g>
  <text x="340" y="290" fill="url(#title)" font-family="Segoe UI, system-ui, sans-serif" font-size="96" font-weight="700" letter-spacing="-2">Sparkroll</text>
  <text x="342" y="370" fill="#c4b5fd" font-family="Segoe UI, system-ui, sans-serif" font-size="34" font-weight="500">Spark your ideas. Roll your content.</text>
  <text x="342" y="430" fill="#a78bfa" fill-opacity="0.75" font-family="Segoe UI, system-ui, sans-serif" font-size="26">Free AI-powered YouTube creator toolkit</text>
</svg>
