<svg xmlns="http://www.w3.org/2000/svg" viewBox="0 0 32 32" fill="none" aria-hidden="true">
  <defs>
    <linearGradient id="sr-brand" x1="4" y1="4" x2="28" y2="28" gradientUnits="userSpaceOnUse">
      <stop stop-color="#F97316"/>
      <stop offset="0.5" stop-color="#E11D48"/>
      <stop offset="1" stop-color="#EC4899"/>
    </linearGradient>
  </defs>
  <path d="M8.5 9.5c0-2.8 2.8-4.5 6-4.5 3.8 0 6.5 2 6.5 5 0 2.4-1.5 4-4.5 4.8l-3.2.8c-2.2.5-3.3 1.8-3.3 3.6 0 2.6 2.4 4.3 5.8 4.3 3.2 0 5.6-1.5 6-4" stroke="url(#sr-brand)" stroke-width="3.2" stroke-linecap="round" stroke-linejoin="round"/>
  <path d="M23.5 22.5c0 2.8-2.8 4.5-6 4.5-3.8 0-6.5-2-6.5-5 0-2.4 1.5-4 4.5-4.8l3.2-.8c2.2-.5 3.3-1.8 3.3-3.6 0-2.6-2.4-4.3-5.8-4.3-3.2 0-5.6 1.5-6 4" stroke="url(#sr-brand)" stroke-width="3.2" stroke-linecap="round" stroke-linejoin="round"/>
</svg>
